HIERARCHY
ROOT hip
{
  OFFSET 0 0 0
  CHANNELS 6 Xposition Yposition Zposition Zrotation Yrotation Xrotation
  JOINT abdomen
  {
    OFFSET 0 20.6881 -0.73152
    CHANNELS 3 Zrotation Xrotation Yrotation
    JOINT chest
    {
      OFFSET 0 11.7043 -0.48768
      CHANNELS 3 Zrotation Xrotation Yrotation
      JOINT neck
      {
        OFFSET 0 22.1894 -2.19456
        CHANNELS 3 Zrotation Xrotation Yrotation
        JOINT head
        {
          OFFSET -0.24384 7.07133 1.2192
          CHANNELS 3 Zrotation Xrotation Yrotation
          JOINT leftEye
          {
            OFFSET 4.14528 8.04674 8.04672
            CHANNELS 3 Zrotation Xrotation Yrotation
            End Site
            {
              OFFSET 1 0 0
            }
          }
          JOINT rightEye
          {
            OFFSET -3.6576 8.04674 8.04672
            CHANNELS 3 Zrotation Xrotation Yrotation
            End Site
            {
              OFFSET 1 0 0
            }
          }
        }
      }
      JOINT rCollar
      {
        OFFSET -2.68224 19.2634 -4.8768
        CHANNELS 3 Zrotation Xrotation Yrotation
        JOINT rShldr
        {
          OFFSET -8.77824 -1.95073 1.46304
          CHANNELS 3 Zrotation Xrotation Yrotation
          JOINT rForeArm
          {
            OFFSET -28.1742 -1.7115 0.48768
            CHANNELS 3 Zrotation Xrotation Yrotation
            JOINT rHand
            {
              OFFSET -22.5879 0.773209 7.07136
              CHANNELS 3 Zrotation Xrotation Yrotation
              JOINT rThumb1
              {
                OFFSET -1.2192 -0.487915 3.41376
                CHANNELS 3 Zrotation Xrotation Yrotation
                JOINT rThumb2
                {
                  OFFSET -3.37035 -0.52449 3.41376
                  CHANNELS 3 Zrotation Xrotation Yrotation
                  End Site
                  {
                    OFFSET -1.78271 -1.18214 1.43049
                  }
                }
              }
              JOINT rIndex1
              {
                OFFSET -7.75947 0.938293 5.60832
                CHANNELS 3 Zrotation Xrotation Yrotation
                JOINT rIndex2
                {
                  OFFSET -2.54057 -0.884171 1.56538
                  CHANNELS 3 Zrotation Xrotation Yrotation
                  End Site
                  {
                    OFFSET -1.62519 -0.234802 1.16502
                  }
                }
              }
              JOINT rMid1
              {
                OFFSET -8.24714 1.18213 3.41376
                CHANNELS 3 Zrotation Xrotation Yrotation
                JOINT rMid2
                {
                  OFFSET -3.10165 -0.590103 1.0647
                  CHANNELS 3 Zrotation Xrotation Yrotation
                  End Site
                  {
                    OFFSET -2.48547 -0.328903 0.83742
                  }
                }
              }
              JOINT rRing1
              {
                OFFSET -8.82822 0.546677 1.51678
                CHANNELS 3 Zrotation Xrotation Yrotation
                JOINT rRing2
                {
                  OFFSET -2.60934 -0.819778 -0.0198488
                  CHANNELS 3 Zrotation Xrotation Yrotation
                  End Site
                  {
                    OFFSET -2.33842 -0.294052 0.168128
                  }
                }
              }
              JOINT rPinky1
              {
                OFFSET -8.27202 -0.0477905 -0.4584
                CHANNELS 3 Zrotation Xrotation Yrotation
                JOINT rPinky2
                {
                  OFFSET -1.82734 -0.647385 -0.700984
                  CHANNELS 3 Zrotation Xrotation Yrotation
                  End Site
                  {
                    OFFSET -1.69225 -0.51767 -0.607171
                  }
                }
              }
            }
          }
        }
      }
      JOINT lCollar
      {
        OFFSET 2.68224 19.2634 -4.8768
        CHANNELS 3 Zrotation Xrotation Yrotation
        JOINT lShldr
        {
          OFFSET 8.77824 -1.95073 1.46304
          CHANNELS 3 Zrotation Xrotation Yrotation
          JOINT lForeArm
          {
            OFFSET 28.1742 -1.7115 0.48768
            CHANNELS 3 Zrotation Xrotation Yrotation
            JOINT lHand
            {
              OFFSET 22.5879 0.773209 7.07136
              CHANNELS 3 Zrotation Xrotation Yrotation
              JOINT lThumb1
              {
                OFFSET 1.2192 -0.487915 3.41376
                CHANNELS 3 Zrotation Xrotation Yrotation
                JOINT lThumb2
                {
                  OFFSET 3.37035 -0.52449 3.41376
                  CHANNELS 3 Zrotation Xrotation Yrotation
                  End Site
                  {
                    OFFSET 1.78271 -1.18214 1.43049
                  }
                }
              }
              JOINT lIndex1
              {
                OFFSET 7.75947 0.938293 5.60832
                CHANNELS 3 Zrotation Xrotation Yrotation
                JOINT lIndex2
                {
                  OFFSET 2.54057 -0.884171 1.56538
                  CHANNELS 3 Zrotation Xrotation Yrotation
                  End Site
                  {
                    OFFSET 1.62519 -0.234802 1.16502
                  }
                }
              }
              JOINT lMid1
              {
                OFFSET 8.24714 1.18213 3.41376
                CHANNELS 3 Zrotation Xrotation Yrotation
                JOINT lMid2
                {
                  OFFSET 3.10165 -0.590103 1.0647
                  CHANNELS 3 Zrotation Xrotation Yrotation
                  End Site
                  {
                    OFFSET 2.48547 -0.328903 0.83742
                  }
                }
              }
              JOINT lRing1
              {
                OFFSET 8.82822 0.546677 1.51678
                CHANNELS 3 Zrotation Xrotation Yrotation
                JOINT lRing2
                {
                  OFFSET 2.60934 -0.819778 -0.0198488
                  CHANNELS 3 Zrotation Xrotation Yrotation
                  End Site
                  {
                    OFFSET 2.33842 -0.294052 0.168128
                  }
                }
              }
              JOINT lPinky1
              {
                OFFSET 8.27202 -0.0477905 -0.4584
                CHANNELS 3 Zrotation Xrotation Yrotation
                JOINT lPinky2
                {
                  OFFSET 1.82734 -0.647385 -0.700984
                  CHANNELS 3 Zrotation Xrotation Yrotation
                  End Site
                  {
                    OFFSET 1.69225 -0.51767 -0.607171
                  }
                }
              }
            }
          }
        }
      }
    }
  }
  JOINT rButtock
  {
    OFFSET -8.77824 4.35084 1.2192
    CHANNELS 3 Zrotation Xrotation Yrotation
    JOINT rThigh
    {
      OFFSET 0 -1.70687 -2.19456
      CHANNELS 3 Zrotation Xrotation Yrotation
      JOINT rShin
      {
        OFFSET 0 -36.8199 0.73152
        CHANNELS 3 Zrotation Xrotation Yrotation
        JOINT rFoot
        {
          OFFSET 0.73152 -45.1104 -5.12064
          CHANNELS 3 Zrotation Xrotation Yrotation
          End Site
          {
            OFFSET -1.1221 -3.69964 12.103
          }
        }
      }
    }
  }
  JOINT lButtock
  {
    OFFSET 8.77824 4.35084 1.2192
    CHANNELS 3 Zrotation Xrotation Yrotation
    JOINT lThigh
    {
      OFFSET 0 -1.70687 -2.19456
      CHANNELS 3 Zrotation Xrotation Yrotation
      JOINT lShin
      {
        OFFSET 0 -36.8199 0.73152
        CHANNELS 3 Zrotation Xrotation Yrotation
        JOINT lFoot
        {
          OFFSET -0.73152 -45.1104 -5.12064
          CHANNELS 3 Zrotation Xrotation Yrotation
          End Site
          {
            OFFSET 1.1221 -3.69964 12.103
          }
        }
      }
    }
  }
}
MOTION
Frames:	5
Frame Time:	0.03333
0.0 0.0 0.0 0.0 0.0 0.0 0.0 0.0 0.0 0.0 0.0 0.0 0.0 0.0 0.0 0.0 0.0 0.0 0.0 0.0 0.0 0.0 0.0 0.0 0.0 0.0 0.0 0.0 0.0 0.0 0.0 0.0 0.0 0.0 0.0 0.0 0.0 0.0 0.0 0.0 0.0 0.0 0.0 0.0 0.0 0.0 0.0 0.0 0.0 0.0 0.0 0.0 0.0 0.0 0.0 0.0 0.0 0.0 0.0 0.0 0.0 0.0 0.0 0.0 0.0 0.0 0.0 0.0 0.0 0.0 0.0 0.0 0.0 0.0 0.0 0.0 0.0 0.0 0.0 0.0 0.0 0.0 0.0 0.0 0.0 0.0 0.0 0.0 0.0 0.0 0.0 0.0 0.0 0.0 0.0 0.0 0.0 0.0 0.0 0.0 0.0 0.0 0.0 0.0 0.0 0.0 0.0 0.0 0.0 0.0 0.0 0.0 0.0 0.0 0.0 0.0 0.0 0.0 0.0 0.0 0.0 0.0 0.0 0.0 0.0 0.0 0.0 0.0 0.0 0.0 0.0 0.0
-0.02 65.2234 -0.1999 -1.019249 -3.608596 -1.627361 -0.542225 5.223338 37.097069 -3.911481 -14.863271 163.085844 8.412652 -15.517697 77.086746 -41.794805 21.556163 -103.45368 -52.59959 -26.888741 51.625139 -51.114195 -25.962051 51.473442 89.674189 10.742729 1.192007 -158.024536 60.560493 153.035244 158.866832 16.701575 152.94151 -18.760184 -28.072486 114.094359 5.99336 -4.873664 72.650764 110.359707 19.465128 -91.031496 -133.473457 62.041957 -175.014761 2.921282 -68.74773 -159.037246 162.619015 12.411566 -105.863357 -41.01545 73.055042 16.591343 87.855867 4.186022 -91.192515 -26.460781 57.835334 16.441355 -153.658986 40.497315 -53.670931 40.112847 3.112565 1.7238 -59.683467 29.280029 -24.277818 -16.353146 8.401605 -0.635108 -178.575161 35.603199 4.275591 -177.562885 0.465826 -79.535446 116.277926 -13.709625 -23.465572 -18.990819 10.460071 39.93601 -24.540802 -13.827369 -85.895105 -175.206133 -36.253277 -167.381756 -38.129733 11.736877 -98.017916 56.98739 -48.488379 -22.896644 -16.54722 41.248077 122.637018 -78.624355 35.274002 -31.750735 168.257703 51.15431 126.856565 96.396588 27.30183 155.104069 -49.602319 26.873206 -110.495064 -1.762262 53.537839 -177.958398 -6.24365 1.301727 -96.197653 78.285659 3.826518 -90.795487 43.064388 -4.146479 96.453072 11.126862 39.660562 -31.644938 -5.612454 3.854913 -112.744265 -57.478184 61.837855 58.634773
0.69 62.147 -1.7268 168.922008 74.514893 163.845661 -11.698706 22.532282 17.021193 3.428819 -12.54364 -13.770986 -5.84037 26.61339 -107.188043 45.434461 4.503595 63.764945 18.834733 2.41831 14.504603 43.164394 11.747481 29.15628 -100.737007 56.46556 98.927637 34.926707 -15.33322 50.271774 -11.984881 62.719735 -123.61344 159.263644 -31.940992 130.715207 -144.633103 41.048119 65.355028 60.541822 -41.374966 98.617998 -175.090688 -39.722193 130.952017 -142.651836 -67.82019 143.905664 8.639976 -26.197638 5.413921 -167.111031 -81.770287 -171.535117 -68.959741 -1.065474 -53.880893 64.455481 2.131542 70.009267 5.426557 -25.003404 18.765544 -144.547401 1.799981 -78.936489 -19.434758 -31.355076 -8.459522 100.241856 -44.35583 147.526158 173.045529 3.303163 84.524009 9.659103 -11.580416 20.018166 -7.276381 -23.752776 6.230328 -45.358566 -14.976699 -21.134182 117.118593 -26.107967 -166.03479 37.164286 -34.72065 140.398325 15.374467 -22.783447 -6.364953 136.448919 15.495786 -150.299235 -94.400342 -74.052381 -95.554642 4.610613 51.069532 56.575621 22.459185 66.961195 -72.723461 95.610179 1.354384 158.216565 -72.14544 49.210409 -55.580401 93.565531 -17.608313 152.701255 64.952854 -27.496617 -11.774639 -3.971168 14.528588 -75.737422 -33.90328 72.719488 -133.033336 -54.723036 72.440353 -150.580297 -30.711777 26.803878 -44.947903 123.653079 73.573962 -51.406664
1.7217 61.6556 -1.6691 165.252876 78.258475 159.978704 -10.938433 11.919192 4.192829 -1.91359 -1.2622 16.773458 -1.271838 23.938538 -85.063546 43.929337 -5.093989 28.031449 -7.528645 0.630085 -9.554456 4.734991 0.905825 21.648573 1.799334 27.23518 -6.621226 85.929418 -51.230911 40.575352 -158.187779 14.50202 32.768169 135.242233 -32.564828 111.886296 0.673908 -28.082817 8.457154 -119.255496 -51.038814 140.405355 -24.440464 -32.711125 -14.172794 -167.328628 -38.375496 82.122922 170.062578 21.254461 99.202825 -161.696135 45.887641 67.5514 -61.987751 35.510282 38.049601 -159.195282 42.187544 107.164565 8.730034 -52.52784 71.664249 164.001175 -74.467492 -57.401024 132.62957 28.590737 -121.149316 140.739959 38.755632 -95.703816 -2.806199 -48.498225 126.061912 171.179201 12.140704 -128.343077 -11.025318 -36.535904 30.310201 -4.074754 -2.990456 -32.474433 -162.123089 21.549106 123.731435 -143.894098 -57.083135 126.051432 156.439778 -5.782956 -118.622481 -55.935657 -20.672671 -8.229976 30.02291 49.176431 -32.645339 -56.738386 -72.773956 -27.995027 -173.247925 69.227844 173.494021 -138.871741 -6.502448 -98.466459 37.026108 72.555894 128.03293 165.738238 37.505568 -146.234154 -44.689681 -58.884855 -102.027368 -165.748626 57.556315 117.425934 -7.905522 -41.939474 -0.024836 55.097344 43.888656 -126.904951 -34.553336 -23.084954 24.90768 4.414826 31.660555 85.783311
1.4785 61.017999999999994 0.053700000000000005 174.431663 85.86934 175.194987 -5.77524 -0.879221 -89.565408 -3.904614 0.935187 99.574191 -1.360333 20.606765 85.539985 -43.917887 -8.013869 -122.172329 -37.651675 17.787508 -49.309353 -24.951766 -0.990391 4.474116 3.847195 -20.300414 -15.250477 -111.722061 39.540896 162.705587 -179.635577 -28.083239 -81.624695 1.975419 31.993261 -22.063744 -173.877363 -25.920921 71.232819 -41.664757 -7.30792 8.873362 -19.530094 64.60411 15.068465 115.146497 -88.620378 135.00992 -130.744649 10.320592 67.886735 12.582067 -4.766398 87.911157 105.650701 -65.143706 105.158738 81.641558 -40.454706 -129.409142 -20.065699 29.705011 84.993138 -167.93296 9.814138 -9.781286 142.369352 35.296688 -146.321308 -108.556009 -30.941606 -127.435611 -175.264194 3.667847 -44.989709 166.359558 36.102532 -122.025218 -12.955174 28.761274 39.829891 -7.071684 -47.637852 -33.55387 106.628166 -21.115394 140.080342 8.182243 -41.066478 149.399278 151.020013 23.697123 -110.332418 -2.801052 -40.181721 2.800711 166.674572 4.979349 -177.004671 -20.515905 -8.037528 17.800664 -150.282696 78.179002 166.213753 -150.536694 4.074549 -61.609039 -62.023735 -10.371059 -67.58323 50.218366 -9.708414 -58.801339 -60.53243 -4.593769 11.505064 -12.826562 -14.493597 94.25813 40.092407 10.702339 60.900873 -10.348697 15.049273 -24.381458 17.336391 37.42227 44.812308 125.654816 -54.057925 11.722129
